<?xml version="1.0"?>
<svg xmlns="http://www.w3.org/2000/svg" id="Capa_1" enable-background="new 0 0 512 512" height="512px" viewBox="0 0 512 512" width="512px"><g><path id="XMLID_486_" d="m249.023 14.869h-217.473c-17.397 0-31.55 14.153-31.55 31.551v419.16c0 17.397 14.153 31.551 31.55 31.551h217.474c17.396 0 31.55-14.153 31.55-31.551v-419.16c-.001-17.398-14.154-31.551-31.551-31.551zm-219.023 83.773h220.573v295.416h-220.573zm1.55-53.773h217.474c.854 0 1.55.695 1.55 1.551v22.222h-220.574v-22.222c0-.856.695-1.551 1.55-1.551zm217.473 422.262h-217.473c-.854 0-1.55-.695-1.55-1.551v-41.522h220.573v41.522c0 .856-.695 1.551-1.55 1.551z" fill="#BF2633"/><ellipse id="XMLID_485_" cx="140.287" cy="446.1" rx="16.783" ry="16.786" fill="#BF2633"/><path id="XMLID_484_" d="m444.954 256.109c0-62.608-24.349-121.5-68.562-165.826-5.851-5.866-15.349-5.878-21.213-.027-5.866 5.851-5.878 15.348-.027 21.213 38.564 38.663 59.802 90.03 59.802 144.641 0 28.731-5.829 56.512-17.325 82.569-11.108 25.179-26.945 47.56-47.07 66.521-6.03 5.681-6.313 15.174-.631 21.203 2.952 3.133 6.931 4.714 10.92 4.714 3.689 0 7.386-1.353 10.283-4.082 23.06-21.727 41.209-47.38 53.945-76.247 13.191-29.896 19.878-61.751 19.878-94.679z" fill="#BF2633"/><path id="XMLID_483_" d="m423.798 42.862c-5.852-5.865-15.349-5.873-21.213-.021s-5.873 15.35-.021 21.213c51.225 51.328 79.436 119.534 79.436 192.055 0 37.805-7.606 74.386-22.607 108.728-14.494 33.182-35.178 62.747-61.478 87.875-5.99 5.724-6.206 15.219-.483 21.208 2.947 3.085 6.894 4.638 10.847 4.638 3.725 0 7.455-1.379 10.36-4.154 29.19-27.891 52.151-60.714 68.245-97.558 16.666-38.153 25.116-78.774 25.116-120.737 0-80.522-31.324-156.255-88.202-213.247z" fill="#BF2633"/><path id="XMLID_482_" d="m329.515 137.18c-5.848-5.869-15.346-5.885-21.213-.038-5.869 5.848-5.886 15.346-.038 21.214 26.044 26.138 40.388 60.854 40.388 97.754 0 38.673-16.351 75.865-44.86 102.04-6.103 5.603-6.507 15.091-.905 21.193 2.958 3.222 6.999 4.855 11.053 4.855 3.625 0 7.26-1.306 10.141-3.951 34.681-31.841 54.571-77.087 54.571-124.138-.001-44.892-17.451-87.13-49.137-118.929z" fill="#BF2633"/></g></svg>
